<svg xmlns="http://www.w3.org/2000/svg" width="700.132" height="822.073" viewBox="0 0 700.132 822.073">
  <g id="baloons" transform="translate(0.002 -10.074)">
    <path id="bg" d="M110.4,119.58C41.78,162.74-6.82,240.27.78,313.35c7.77,72.91,71.76,141.52,93.74,228s2.15,191.12,38.86,244.35c36.53,53.41,130,55.72,206.16,32.24,76.38-23.31,135.57-72.41,201.37-116.39C606.71,657.73,679,618.88,696,562.83c17-55.88-21.33-129-63-183.51-41.5-54.73-86.63-90.77-133.25-141.19s-94.9-115.07-163.35-143C267.79,67.18,179,76.27,110.4,119.58Z" fill="#f2f2f2"/>
    <g id="baloon2" transform="translate(-192.77 48.712) rotate(-18)">
      <line id="Line_10" data-name="Line 10" y1="269.95" x2="203.626" transform="translate(299.5 407.645)" fill="none" stroke="#fed385" stroke-linecap="round" stroke-miterlimit="10" stroke-width="5"/>
      <ellipse id="Ellipse_9" data-name="Ellipse 9" cx="105.821" cy="88.958" rx="105.821" ry="88.958" transform="translate(425.431 374.738) rotate(-64.05)" fill="#7cdcaf"/>
      <path id="Path_11" data-name="Path 11" d="M485.038,365.561l-1.862,26.646a4.468,4.468,0,0,1-6.981,3.4l-22.108-14.94a4.468,4.468,0,0,1,.547-7.726l24-11.706a4.468,4.468,0,0,1,6.4,4.329Z" transform="translate(24.965 37.558)" fill="#74d5de"/>
    </g>
    <g id="baloon1">
      <line id="Line_9" data-name="Line 9" y1="258.5" x2="14.5" transform="translate(299.5 342.28)" fill="none" stroke="#fed385" stroke-linecap="round" stroke-miterlimit="10" stroke-width="5"/>
      <ellipse id="Ellipse_8" data-name="Ellipse 8" cx="101" cy="78.71" rx="101" ry="78.71" transform="translate(239.952 359.545) rotate(-86.01)" fill="#d37c59"/>
      <path id="Path_9" data-name="Path 9" d="M318.32,362l9,21.14a3.85,3.85,0,0,1-4,5.32l-22.79-2.81a3.84,3.84,0,0,1-2.6-6.13l13.83-18.33a3.84,3.84,0,0,1,6.56.81Z" fill="#d37c59"/>
    </g>
    <g id="baloon4">
      <ellipse id="Ellipse_11" data-name="Ellipse 11" cx="93.44" cy="69.34" rx="93.44" ry="69.34" transform="translate(321.745 295.88) rotate(-73.12)" fill="#fed385"/>
      <line id="Line_13" data-name="Line 13" y1="294" x2="88" transform="translate(299.5 306.78)" fill="none" stroke="#fed385" stroke-linecap="round" stroke-miterlimit="10" stroke-width="5"/>
      <path id="Path_10" data-name="Path 10" d="M390.76,307.05,396,329.42a3.84,3.84,0,0,1-4.86,4.54l-22-6.67a3.84,3.84,0,0,1-1.51-6.48l16.76-15.69a3.84,3.84,0,0,1,6.37,1.93Z" fill="#fed385"/>
    </g>
    <g id="baloon2-2" data-name="baloon2">
      <line id="Line_10-2" data-name="Line 10" y1="232" x2="175" transform="translate(299.5 368.78)" fill="none" stroke="#fed385" stroke-linecap="round" stroke-miterlimit="10" stroke-width="5"/>
      <ellipse id="Ellipse_9-2" data-name="Ellipse 9" cx="112" cy="94.5" rx="112" ry="94.5" transform="translate(391.499 332.601) rotate(-64.05)" fill="#74d5de"/>
      <path id="Path_11-2" data-name="Path 11" d="M480.41,364.89l-1.6,22.9a3.84,3.84,0,0,1-6,2.92l-19-12.84a3.84,3.84,0,0,1,.47-6.64l20.63-10.06a3.84,3.84,0,0,1,5.5,3.72Z" fill="#74d5de"/>
    </g>
    <g id="baloon3">
      <line id="Line_12" data-name="Line 12" x1="33" y1="371" transform="translate(266.5 229.78)" fill="none" stroke="#fed385" stroke-linecap="round" stroke-miterlimit="10" stroke-width="5"/>
      <ellipse id="Ellipse_12" data-name="Ellipse 12" cx="94.5" cy="112" rx="94.5" ry="112" transform="matrix(0.997, -0.08, 0.08, 0.997, 155.318, 25.232)" fill="#fd8369"/>
      <path id="Path_12" data-name="Path 12" d="M269.26,232.21l13,18.9a3.85,3.85,0,0,1-2.85,6L256.56,259a3.85,3.85,0,0,1-3.78-5.48l9.85-20.74a3.84,3.84,0,0,1,6.63-.57Z" fill="#fd8369"/>
    </g>
    <g id="box">
      <rect id="Rectangle_13" data-name="Rectangle 13" width="223.27" height="200" transform="translate(426.226 828.499) rotate(-168.76)" fill="#de8e68"/>
      <path id="Path_13" data-name="Path 13" d="M255.06,656.83l218.98,43.52-8.79-68.02L246.26,588.81Z" fill="#d37c59"/>
      <rect id="Rectangle_14" data-name="Rectangle 14" width="127.83" height="200" transform="translate(207.259 784.964) rotate(-168.76)" fill="#d37c59"/>
      <path id="Path_14" data-name="Path 14" d="M212.74,648.41,87.6,623.54l33.53-59.61,125.13,24.88Z" fill="#de8e68"/>
      <rect id="Rectangle_15" data-name="Rectangle 15" width="51.82" height="59" transform="translate(342.148 811.787) rotate(-168.76)" fill="#d37c59"/>
      <rect id="Rectangle_16" data-name="Rectangle 16" width="78.04" height="43.07" transform="translate(312.979 724.274) rotate(-168.76)" fill="#fed385"/>
      <rect id="Rectangle_17" data-name="Rectangle 17" width="17.64" height="31.29" transform="translate(307.275 716.721) rotate(-168.76)" fill="#fd8369"/>
      <rect id="Rectangle_18" data-name="Rectangle 18" width="44.08" height="5.96" transform="translate(291.211 687.876) rotate(-168.76)" fill="#fd8369"/>
      <rect id="Rectangle_19" data-name="Rectangle 19" width="44.08" height="5.96" transform="translate(289.212 697.878) rotate(-168.76)" fill="#fd8369"/>
    </g>
  </g>
</svg>
