<svg xmlns="http://www.w3.org/2000/svg" width="670.353" height="798.349" viewBox="0 0 670.353 798.349">
  <g id="humaaans_sitting-1" data-name="humaaans/sitting-1" transform="translate(-18 -17)">
    <g id="A-Human_Sitting" data-name="A-Human/Sitting" transform="translate(688.353 815.349) rotate(180)">
      <g id="Head_Front_Airy" data-name="Head/Front/Airy" transform="translate(0 557.542)">
        <g id="Head" transform="translate(266.839 0)">
          <path id="Path_1" data-name="Path 1" d="M17.924,83.544c-10,11.734-16.762,26.114-15.632,42.227C5.55,172.2,70.178,161.985,82.749,138.553s11.078-82.87-5.17-87.058C71.1,49.825,57.3,53.916,43.248,62.383L52.066,0H0Z" fill="#b28b67" fill-rule="evenodd"/>
        </g>
        <path id="hair" d="M319.912,85.206c-6.862,1.126-25.339,1.9-28.746,1.9-2.177,0-4.537-.5-5.827,1.5-1.056,1.637-.669,4.406-.984,6.306-.366,2.207-.886,4.386-1.412,6.559a66.7,66.7,0,0,1-6.925,17.591,54.071,54.071,0,0,1-25.63,23.2c-12.133,5.216-25.861,6.41-38.911,5.352-13.965-1.132-26.607-5.742-39.793-10.08-12.565-4.134-25.726-5.761-38.868-3.743-13.241,2.034-23.246,9.21-34.414,16.022-11.433,6.973-24.5,11.534-38.015,10.486-12.617-.979-24.245-6.189-34.678-13.148-9.761-6.511-17.815-14.345-22.363-25.37-4.892-11.86-4.887-24.879,3.157-35.36C18.163,71.233,39.809,67.3,57.817,67.694A98.039,98.039,0,0,1,88.3,73.28c13.115,4.613,24.449,12.432,36.719,18.776a95.549,95.549,0,0,0,17.949,7.183c6.054,1.71,12.017,2.494,17.5-1.163,5.8-3.869,10.995-7.669,17.628-10.091a56.854,56.854,0,0,1,19.885-3.571c13.191.1,26.2,4.212,39.007,6.965,10.448,2.244,21.627,4.482,32.278,2.324,4.444-.9,10.937-2.76,12.542-7.379-27.019-4.9-37.631-38.312-30.014-62.842,4.111-13.24,28.823-28.717,38.431-21.756,6.087,4.409,2.392,10.2,0,14.02-4.58,7.318-6.147,16.719,2.328,21.814,7.31,4.394,15-6.041,15.142-6.03,2.009.158,19.37,9.977,31.332,24.3,11.8-.7,13.59,7.081,10.773,13.444S329.393,83.651,319.912,85.206Z" transform="translate(0 80.353)" fill="#191847" fill-rule="evenodd"/>
      </g>
      <g id="Bottom_Sitting_Sweat-Pants" data-name="Bottom/Sitting/Sweat-Pants" transform="translate(78.099 0)">
        <g id="Objects_Seat_Ball" data-name="Objects/Seat/Ball">
          <ellipse id="Ballsy-Ball" cx="167.046" cy="159.453" rx="167.046" ry="159.453" fill="#c5cfd6"/>
        </g>
        <path id="Skin" d="M330.557,0c-27.8,61.521-47.9,115.092-55.967,143.355-13.815,48.394-24.326,90.979-26.983,106.882-6.335,37.923,48.73,40.131,56.008,21.284C314.631,243,333.863,149.273,356.972,7.708ZM8.135,193.071c25.5,10.081,114.815,41.628,157.889,50.553,12.379,2.564,24.376,4.947,35.655,7.1,33.526,6.4,50.9-54.082,18.607-58.729C139.871,180.422,25.87,168.47,16.114,167.129,2.44,165.25-7.893,186.736,8.135,193.071Z" transform="translate(152.16 24.601)" fill="#b28b67" fill-rule="evenodd"/>
        <path id="Leg-Back" d="M137.947,215.261,0,285.484v15.287H16.405Q216.593,249.76,221,235.39c.03-.1.061-.206.087-.31.067-.088.132-.177.2-.266C247.729,198.44,263.57,20.857,268.768,7.56L218.088,0C198.7,71.89,136.674,121.971,138.32,208.074A28.266,28.266,0,0,0,137.947,215.261Z" transform="translate(236.467 76.709)" fill="#1f28cf" fill-rule="evenodd"/>
        <path id="Leg-Front" d="M109.085,54.825c-12.622,2.527-24.246,4.782-34.19,6.526C10.649,72.62-8.084,107.009,2.993,182.041H121.361c19.336-5.554,119.822-47.694,171.96-70.108,34.507-14.835,23.629-68.311,4.087-82.228a1.908,1.908,0,0,0-1.085-1.693C191.206-15.556,108.048,7.3,80.268,0L67.419,40.533Z" transform="translate(138.844 195.439)" fill="#2b44ff" fill-rule="evenodd"/>
        <g id="Accessories_Shoe_Flat-Sneaker" data-name="Accessories/Shoe/Flat-Sneaker" transform="matrix(0.438, -0.899, 0.899, 0.438, 138.955, 213.505)">
          <path id="shoe" d="M3.641,31.669Q0,21.951,0,17.126A108.854,108.854,0,0,1,1.955,0H124.314q4.769,15.768-5.507,17.025T101.735,19.3L44.864,44.649A2.169,2.169,0,0,1,42,43.551l-.024-.056-3.656-8.868q-9.513-4.439-15.46-4.438-4.832,0-13.347,3.9h0A4.339,4.339,0,0,1,3.76,31.955Q3.695,31.814,3.641,31.669Z" transform="translate(0 0)" fill="#e4e4e4" fill-rule="evenodd"/>
        </g>
        <g id="Accessories_Shoe_Flat-Sneaker-2" data-name="Accessories/Shoe/Flat-Sneaker" transform="translate(466.427 4.339)">
          <path id="shoe-2" data-name="shoe" d="M3.641,31.669Q0,21.951,0,17.126A108.854,108.854,0,0,1,1.955,0h122.36q4.769,15.768-5.507,17.025T101.735,19.3L44.864,44.649A2.169,2.169,0,0,1,42,43.551l-.024-.056-3.656-8.868q-9.513-4.439-15.46-4.438-4.832,0-13.347,3.9h0A4.339,4.339,0,0,1,3.76,31.955Q3.695,31.815,3.641,31.669Z" transform="translate(0)" fill="#e4e4e4" fill-rule="evenodd"/>
        </g>
      </g>
      <g id="Body_Jacket-2" data-name="Body/Jacket-2" transform="translate(23.864 242.976)">
        <path id="Skin-2" data-name="Skin" d="M425.207,193.909l78.609,34.522q20.654,20.583,39.891,31.288c3.833,1.221,10.385,1.59,3.4-8.62s-13.882-21.262-11.09-24.84,10.884.371,14.08-5.447q3.2-5.818-40.913-13.92l-58.872-45.138ZM107.4,184.4l44.455-8.82Q84.8,50.6,79.932,43.106c-7.3-11.248-.489-31.862,2.027-42.718C66.177-3.287,72.4,20.468,52.429,15.509,34.2,10.981,18.743-.636,1.744,15.032c-2.09,1.926-3.62,7.949,3.506,11.036C23,33.763,49.229,48.17,53.481,53.763Q62.181,65.2,107.4,184.4Z" transform="translate(0 0)" fill="#b28b67" fill-rule="evenodd"/>
        <path id="Coat-Back" d="M0,214.34l18.408,4.84C62.566,183.256,87.475,89.849,115.7,79.666c26.684-9.628,62.037,5.041,103.893,24.333l15.822-28.411C199.868,29.673,119.359-13.535,83.659,3.987,26.584,32,3.833,147.9,0,214.34Z" transform="translate(254.002 137.202) rotate(-5)" fill="#e3be04" fill-rule="evenodd"/>
        <path id="Shirt" d="M0,0H165.985c7.586,0,6.157,10.951,5.059,16.479-12.652,63.782-62.05,132.536-62.05,223.328l-47.877,7.508C21.515,183.624,7.82,105.207,0,0Z" transform="translate(190.909 114.979)" fill="#dde3e9" fill-rule="evenodd"/>
        <path id="Coat-Front" d="M120.118,131.829Q69.362,40.275,34.792,0L0,6.814Q33.617,215.3,194.7,314.567h18.956Q278.132,94.792,249.206,21.694H99.794C102.157,57.353,109.737,95.062,120.118,131.829Z" transform="translate(54.236 47.727)" fill="#f2ca04" fill-rule="evenodd"/>
      </g>
    </g>
  </g>
</svg>
