<svg xmlns="http://www.w3.org/2000/svg" width="487.432" height="811.159" viewBox="0 0 487.432 811.159">
  <g id="humaaans_standing-23" data-name="humaaans/standing-23" transform="translate(-56.5 -32.601)">
    <g id="humaaan-8" transform="translate(56.5 32.601)">
      <g id="Head_Front_Curly" data-name="Head/Front/Curly" transform="translate(177.993 0)">
        <g id="Head" transform="translate(47.28 33.49)">
          <path id="Path_2" data-name="Path 2" d="M16.277,67.946C7.2,57.291,1.055,44.232,2.082,29.6,5.04-12.559,63.727-3.284,75.143,17.994S85.2,93.247,70.448,97.05c-5.884,1.517-18.418-2.2-31.175-9.888l8.007,56.649H0Z" transform="translate(0 0)" fill="#b28b67" fill-rule="evenodd"/>
        </g>
        <path id="hair" d="M174.655,36.587a10.225,10.225,0,0,0-7.161-7.262,9.439,9.439,0,0,0-2.635-.262c-.317.013-.406.1-.555-.118a2.937,2.937,0,0,1-.157-.761,14.209,14.209,0,0,0-.536-1.775,14.472,14.472,0,0,0-3.494-5.194,17.59,17.59,0,0,0-10.566-5,15.4,15.4,0,0,0-6.352.866,25.174,25.174,0,0,0-3.084,1.319c-.3.151-1.277.89-1.579.842-.334-.053-1-.881-1.275-1.09A18.673,18.673,0,0,0,125.6,14.6c-4.712.035-9.25.27-13.18,3.143a26.367,26.367,0,0,0-2.379,1.975c-.4.369-.782.752-1.149,1.151q-.332.361-.645.739c-.352.429-.3.57-.789.271a9.8,9.8,0,0,0-6.291-1.415,14.084,14.084,0,0,0-3.8,1.073c-.412.176-1.367.88-1.806.887s-1.377-.645-1.826-.811a14.973,14.973,0,0,0-7.589-.7A19.6,19.6,0,0,0,78.7,23.837a10,10,0,0,0-2.758,2.507c-.324.448-.617.921-.985,1.337-.215.243-.641.492-.757.8a16.342,16.342,0,0,0-3.154-1.392,7.769,7.769,0,0,0-4.438.169,17.646,17.646,0,0,0-7,4.972,19.869,19.869,0,0,0-2.591,3.479q-.528.9-.969,1.84a6.84,6.84,0,0,1-.426.959c-.243.353-.406.36-.845.514a13.651,13.651,0,0,0-5.814,3.893,13.4,13.4,0,0,0-3.01,6.382,3.256,3.256,0,0,1-.121.785c-.111.1-.56.058-.73.077a15.332,15.332,0,0,0-1.747.308,14.423,14.423,0,0,0-3.072,1.1,16.051,16.051,0,0,0-7.868,9.4,19.063,19.063,0,0,0,.3,13.05,12.752,12.752,0,0,0,.969,1.911c.232.373.307.374.156.765-.168.435-.474.858-.674,1.283a18.419,18.419,0,0,0-1.391,4.363,20.464,20.464,0,0,0-.24,7.542A10.891,10.891,0,0,0,32.7,93.191a9.51,9.51,0,0,0,1.021,1.481c.2.239.413.467.636.685a4.256,4.256,0,0,1,.4.373c.264.34.32.06.184.559a22.384,22.384,0,0,1-.888,2.064c-.273.7-.519,1.408-.745,2.124a31.341,31.341,0,0,0-1.084,4.427,13.9,13.9,0,0,0,.981,8.6,8.6,8.6,0,0,0,2.434,2.9,9.042,9.042,0,0,0,1.6.971c.29.138.66.2.792.477.142.3-.069.9-.117,1.237a20.616,20.616,0,0,0,.242,8.883,12.274,12.274,0,0,0,4.865,6.53c4.452,3,10.452,2.832,15.129.429a15.877,15.877,0,0,0,3.377-2.321c2.591,3.488,7.923,3.378,11.71,2.384a16.82,16.82,0,0,0,10.684-8.829c2.983,3.631,9.242,2.453,11.31-1.486a9.422,9.422,0,0,0,.954-3.1c.078-.565.028-1.136.087-1.7a8.766,8.766,0,0,1,.826-2.1,11.6,11.6,0,0,0,.881-4.187,21.238,21.238,0,0,0-.161-2.248,7.728,7.728,0,0,1,.23-1.975,9.035,9.035,0,0,1-3.824-.478,7.552,7.552,0,0,1-2.956-2.079,17.249,17.249,0,0,1-3.719-6.953c-1.681-5.507-.992-12.113,4.547-15.135,2.58-1.408,10.31-1.4,13.383-.707,3.231.732,6.894,7.862,7.075,8.532.111.415.055.928.436,1.2.837.608,2.218-.447,2.836-.967a11.187,11.187,0,0,0,2.485-3.3,40.9,40.9,0,0,0,3.408-8.359c.63-2.228,1.033-4.525,1.856-6.7a10.242,10.242,0,0,1,4.119-5.314,36.27,36.27,0,0,1,7.086-2.869,17.589,17.589,0,0,0,6.555-3.6,9.072,9.072,0,0,0,1.125-1.253c.257-.359.512-1.048.9-1.276.61-.355,1.5.567,2.027.9a23.424,23.424,0,0,1,6.522,6.473,40.273,40.273,0,0,1,4.33,7.708c.861,2.073,1.4,4.728,2.912,6.427.676.759,5.7,1.218,7.329.555a9.26,9.26,0,0,0,4-3.46,5.369,5.369,0,0,0,.453-3.523c-.14-.711-.427-1.374-.584-2.072a6.465,6.465,0,0,0-.538-1.677,4.134,4.134,0,0,0-2.578-2.055,12.108,12.108,0,0,0,2.786-3.777,16.25,16.25,0,0,0,1.441-4.922,5.977,5.977,0,0,0-.8-3.834,10.106,10.106,0,0,0-3.274-2.717,21.306,21.306,0,0,0,4.556-4.962C174.387,45.532,175.893,40.935,174.655,36.587Z" transform="translate(-31.287 -14.601)" fill="#191847" fill-rule="evenodd"/>
      </g>
      <g id="Bottom_Standing_Skinny-Jeans-Walk" data-name="Bottom/Standing/Skinny-Jeans-Walk" transform="translate(0 340.325)">
        <path id="Leg" d="M133.491,0l94.721,250.638L294.6,435.373h37.857L241.2,0Z" transform="translate(76.17)" fill="#1f28cf" fill-rule="evenodd"/>
        <path id="Leg-2" data-name="Leg" d="M192.595,0c-1.031,86-.285,201.783-2.684,207.144q-2.4,5.361-149.238,122.159l19.513,33.18q174.33-112.421,183.243-127.4C252.342,220.1,297.118,82.274,320.415,0Z" transform="translate(-6.344)" fill="#2b44ff" fill-rule="evenodd"/>
        <g id="Accessories_Shoe_Flat-Pointy" data-name="Accessories/Shoe/Flat-Pointy" transform="matrix(0.643, 0.766, -0.766, 0.643, 31.691, 325.038)">
          <path id="Shoe" d="M0,41.37,1.97,0H43.34q29.425,20.685,76.831,33.49v7.88H45.31L19.7,37.43v3.94Z" transform="translate(0 0)" fill="#191847" fill-rule="evenodd"/>
        </g>
        <g id="Accessories_Shoe_Flat-Pointy-2" data-name="Accessories/Shoe/Flat-Pointy" transform="translate(367.261 429.463)">
          <path id="Shoe-2" data-name="Shoe" d="M0,61.185l1.97-41.37H43.34Q72.765,40.5,120.171,53.305v7.88H45.31L19.7,57.245v3.94Z" transform="translate(0 -19.815)" fill="#191847" fill-rule="evenodd"/>
        </g>
      </g>
      <g id="Body_Hoodie" data-name="Body/Hoodie" transform="translate(68.1 126.826)">
        <path id="Skin" d="M344.169,96.167l62.839,46.144q25.566,6.9,42.719,17.167c2.7,2.461,5.965,7.444-5.238,6.583s-23.023-1.264-24.57,2.558,5.234,8.391,2.11,13.546q-3.125,5.154-29.523-25.855l-62.229-25.8ZM102.895,97.76l41.168.162Q105.934,221.009,102.895,228.54c-4.559,11.3,5.088,28.5,9.213,37.749-13.436,6.013-12-16.253-28.953-8.368-15.47,7.2-27.238,20.239-45.111,9.209-2.2-1.354-4.606-6.46,1.213-10.45,14.495-9.938,35.383-27.334,38.205-33.059Q83.235,211.907,102.895,97.76Z" transform="translate(-35.628 92.412)" fill="#b28b67" fill-rule="evenodd"/>
        <path id="Coat-Back" d="M0,4.4,16.716,0C84.44,48.883,119.442,151.114,201.464,199.716L184.9,224.367C49.561,219.5,5.225,94.95,0,4.4Z" transform="translate(184.641 13.048) rotate(5)" fill="#00e28f" fill-rule="evenodd"/>
        <path id="Shirt" d="M93.861,224.582H244.589c6.887,0,5.59-9.946,4.594-14.965C237.693,151.7,192.837,89.264,192.837,6.818L149.36,0C113.4,57.837,100.962,129.045,93.861,224.582Z" transform="translate(16.14 6.921)" fill="#dde3e9" fill-rule="evenodd"/>
        <path id="Coat-Front" d="M127.645,60.108q-9.472-2.723-15-12.7c-15.891-28.674-10.152-44.461,6.831-49.65s32.127,5.5,59.185,5.5a27.214,27.214,0,0,1,4.042.277l13.612.777q58.574,198.52,32.309,264.9H109.987A404.64,404.64,0,0,1,89.809,310.58H57.483Q52.919,163.027,127.645,60.108Z" transform="translate(-16.433 3.664)" fill="#04f29b" fill-rule="evenodd"/>
        <path id="Shade" d="M110.988,104.809q5.6,46.826,18.192,67.969H85.154Q97.453,144.1,110.988,104.809Z" transform="translate(8.4 100.095)" fill="rgba(0,0,0,0.1)" fill-rule="evenodd"/>
      </g>
    </g>
  </g>
</svg>
